<svg width="41" height="40" viewBox="0 0 41 40" fill="none" xmlns="http://www.w3.org/2000/svg">
<path d="M10.75 6C11.75 5 11 2 9.31202 2C7.62402 2 7.75002 4 8.75002 4C9.75002 4 9.75002 6 9.75002 7C9.75002 8 10.75 6 10.75 6ZM6.56702 7.72C7.56702 6.72 6.81702 3.72 5.12902 3.72C3.44102 3.72 3.56702 5.72 4.56702 5.72C5.56702 5.72 5.56702 7.72 5.56702 8.72C5.56702 9.72 6.56702 7.72 6.56702 7.72Z" fill="#AA8DD8"/>
<path d="M32.942 34.856C33.131 35.664 34.169 37.136 34.974 36.947C35.78 36.757 36.051 34.976 35.862 34.17C35.673 33.362 34.864 32.863 34.058 33.053C33.253 33.243 32.752 34.05 32.942 34.856V34.856ZM27.508 35.505C27.511 36.335 28.189 38.003 29.017 38C29.845 37.996 30.511 36.323 30.508 35.494C30.505 34.665 29.831 33.997 29.003 33.999C28.175 34.003 27.505 34.676 27.508 35.505V35.505ZM22.237 33.059C21.911 33.823 21.872 35.622 22.633 35.949C23.396 36.273 24.67 35.002 24.996 34.239C25.321 33.477 24.968 32.596 24.207 32.269C23.445 31.944 22.564 32.296 22.237 33.059V33.059ZM17.206 22.019C16.394 22.191 14.898 23.192 15.067 24.002C15.24 24.812 17.012 25.126 17.824 24.955C18.635 24.784 19.153 23.988 18.984 23.178C18.812 22.368 18.019 21.848 17.206 22.019ZM15.169 17.019C14.357 17.191 12.861 18.192 13.03 19.002C13.203 19.812 14.975 20.126 15.787 19.955C16.598 19.784 17.116 18.988 16.947 18.178C16.775 17.368 15.981 16.848 15.169 17.019V17.019Z" fill="#744EAA"/>
<path d="M30.579 36C33.41 36 35.505 35.123 35.845 34.973C38.116 33.963 39.138 31.304 38.129 29.034C37.13 26.784 34.513 25.759 32.257 26.72C32.124 26.77 30.464 27.369 28.914 26.648C27.063 25.787 25.919 23.339 25.286 21.439C25.142 21.009 24.901 20.165 24.6 19.123C22.734 12.652 21.768 10.838 20.617 9.30299C16.906 4.35199 11.025 4.00699 8.13402 4.58699C5.69702 5.07399 4.11602 7.44499 4.60402 9.88199C5.09202 12.32 7.46402 13.902 9.90002 13.412C10.062 13.386 12.104 13.106 13.324 14.581C13.967 15.868 15.404 19.709 15.954 21.615C16.3 22.814 16.583 23.786 16.748 24.282C18.521 29.599 21.414 33.175 25.351 34.911C27.203 35.729 29.005 36 30.579 36Z" fill="#9266CC"/>
<path d="M10.017 8C10.5693 8 11.017 7.55228 11.017 7C11.017 6.44772 10.5693 6 10.017 6C9.46474 6 9.01703 6.44772 9.01703 7C9.01703 7.55228 9.46474 8 10.017 8Z" fill="#202024"/>
<path d="M34.258 34.964C34.169 34.964 34.078 34.952 33.989 34.928C33.457 34.78 33.145 34.229 33.293 33.697C34.05 30.975 32.523 29.155 32.508 29.137C32.149 28.718 32.196 28.086 32.615 27.727C33.033 27.368 33.666 27.415 34.025 27.834C34.117 27.941 36.259 30.494 35.22 34.231C35.098 34.674 34.695 34.964 34.258 34.964V34.964ZM27.059 34.401C26.814 34.401 26.569 34.312 26.375 34.131C25.972 33.753 25.951 33.12 26.328 32.717C27.813 31.13 27.781 28.524 27.78 28.497C27.764 27.945 28.199 27.485 28.752 27.469C29.294 27.464 29.765 27.888 29.78 28.441C29.784 28.58 29.853 31.878 27.789 34.085C27.592 34.295 27.325 34.401 27.059 34.401V34.401ZM18.517 25.705C18.037 25.705 17.613 25.358 17.532 24.868C17.442 24.324 17.81 23.808 18.355 23.719C21.429 23.209 23.129 21.342 23.146 21.323C23.511 20.913 24.144 20.874 24.555 21.239C24.967 21.604 25.008 22.232 24.646 22.645C24.559 22.744 22.49 25.06 18.682 25.691C18.626 25.701 18.571 25.705 18.517 25.705V25.705ZM21.438 30.562C21.013 30.562 20.619 30.29 20.484 29.864C20.318 29.338 20.61 28.775 21.136 28.609C23.829 27.756 25.016 25.779 25.028 25.759C25.308 25.282 25.92 25.122 26.396 25.402C26.873 25.681 27.032 26.295 26.753 26.77C26.69 26.878 25.158 29.433 21.74 30.514C21.639 30.547 21.537 30.562 21.438 30.562V30.562ZM16.819 19.892C16.323 19.892 15.892 19.523 15.828 19.017C15.759 18.469 16.147 17.969 16.695 17.899C19.384 17.559 21.352 15.928 21.371 15.911C21.793 15.557 22.424 15.608 22.779 16.03C23.135 16.451 23.084 17.08 22.664 17.437C22.567 17.52 20.244 19.466 16.946 19.883C16.903 19.889 16.861 19.892 16.819 19.892V19.892ZM14.998 15.125C14.573 15.125 14.179 14.852 14.044 14.424C13.879 13.897 14.171 13.336 14.698 13.17C17.828 12.187 18.951 10.478 18.997 10.406C19.292 9.944 19.908 9.801 20.372 10.094C20.837 10.386 20.983 10.993 20.696 11.46C20.636 11.557 19.19 13.856 15.297 15.079C15.198 15.11 15.097 15.125 14.998 15.125V15.125Z" fill="#744EAA"/>
</svg>
