<svg width="41" height="40" viewBox="0 0 41 40" fill="none" xmlns="http://www.w3.org/2000/svg">
<path d="M38.1667 14.875C38.1667 11.009 35.0327 7.875 31.1667 7.875C29.9997 7.875 28.9017 8.165 27.9347 8.669C25.8527 5.842 22.5097 4 18.7297 4C13.5977 4 9.25466 7.38 7.80666 12.036C5.14866 12.653 3.16666 15.03 3.16666 17.875C3.16666 20.854 5.34066 23.32 8.18766 23.788C8.40366 27.737 11.6647 30.875 15.6667 30.875C17.8427 30.875 19.7967 29.942 21.1667 28.462C22.5367 29.942 24.4897 30.875 26.6667 30.875C30.8097 30.875 34.1667 27.518 34.1667 23.375C34.1667 22.665 34.0617 21.981 33.8777 21.33C36.3967 20.271 38.1667 17.78 38.1667 14.875Z" fill="#85C8F8"/>
<path d="M7.16666 36.875C8.82351 36.875 10.1667 35.5319 10.1667 33.875C10.1667 32.2181 8.82351 30.875 7.16666 30.875C5.50981 30.875 4.16666 32.2181 4.16666 33.875C4.16666 35.5319 5.50981 36.875 7.16666 36.875Z" fill="#85C8F8"/>
</svg>
